<?xml version="1.0" standalone="no"?>
<!DOCTYPE svg PUBLIC "-//W3C//DTD SVG 1.1//EN" "http://www.w3.org/Graphics/SVG/1.1/DTD/svg11.dtd" >
<svg xmlns="http://www.w3.org/2000/svg">
<metadata>
Created by FontForge 20120731 at Sun Aug 14 13:02:23 2016
 By admin
</metadata>
<defs>
<font id="iconfont" horiz-adv-x="1024" >
  <font-face 
    font-family="iconfont"
    font-weight="500"
    font-stretch="normal"
    units-per-em="1024"
    panose-1="2 0 6 3 0 0 0 0 0 0"
    ascent="896"
    descent="-128"
    x-height="792"
    bbox="0 -212 1232 896"
    underline-thickness="50"
    underline-position="-100"
    unicode-range="U+0078-E630"
  />
<missing-glyph horiz-adv-x="374" 
d="M34 0v682h272v-682h-272zM68 34h204v614h-204v-614z" />
    <glyph glyph-name=".notdef" horiz-adv-x="374" 
d="M34 0v682h272v-682h-272zM68 34h204v614h-204v-614z" />
    <glyph glyph-name=".null" horiz-adv-x="0" 
 />
    <glyph glyph-name="nonmarkingreturn" horiz-adv-x="341" 
 />
    <glyph glyph-name="x" unicode="x" horiz-adv-x="1001" 
d="M281 543q-27 -1 -53 -1h-83q-18 0 -36.5 -6t-32.5 -18.5t-23 -32t-9 -45.5v-76h912v41q0 16 -0.5 30t-0.5 18q0 13 -5 29t-17 29.5t-31.5 22.5t-49.5 9h-133v-97h-438v97zM955 310v-52q0 -23 0.5 -52t0.5 -58t-10.5 -47.5t-26 -30t-33 -16t-31.5 -4.5q-14 -1 -29.5 -0.5
t-29.5 0.5h-32l-45 128h-439l-44 -128h-29h-34q-20 0 -45 1q-25 0 -41 9.5t-25.5 23t-13.5 29.5t-4 30v167h911zM163 247q-12 0 -21 -8.5t-9 -21.5t9 -21.5t21 -8.5q13 0 22 8.5t9 21.5t-9 21.5t-22 8.5zM316 123q-8 -26 -14 -48q-5 -19 -10.5 -37t-7.5 -25t-3 -15t1 -14.5
t9.5 -10.5t21.5 -4h37h67h81h80h64h36q23 0 34 12t2 38q-5 13 -9.5 30.5t-9.5 34.5q-5 19 -11 39h-368zM336 498v228q0 11 2.5 23t10 21.5t20.5 15.5t34 6h188q31 0 51.5 -14.5t20.5 -52.5v-227h-327z" />
    <glyph glyph-name="uniE600" unicode="&#xe600;" 
d="M875 427h-107v21q0 10 -6 15.5t-15.5 5.5t-15.5 -5.5t-6 -15.5v-43q0 -9 6 -15t16 -6h128q9 0 15 6t6 15t-6 15.5t-15 6.5zM789.5 213q-44.5 0 -75.5 -31t-31 -75.5t31 -75.5t75.5 -31t75.5 31t31 75.5t-31 75.5t-75.5 31zM789.5 43q-27.5 0 -46 18t-18.5 45.5t18.5 46
t46 18.5t45.5 -18.5t18 -46t-18 -45.5t-45.5 -18zM1020 410l-96 149q-10 15 -30 15h-192q-21 0 -21 -21q0 -20 21 -20h181l96 -149v-213h-42q-10 0 -16 -6t-6 -15.5t6 -15.5t16 -6h66q21 0 21 21v248q0 4 -4 13zM237 213q-45 0 -76 -31t-31 -75.5t31 -75.5t76 -31t75.5 31
t30.5 76q0 43 -31 74.5t-75 31.5zM237 43q-27 0 -45.5 18t-18.5 45.5t18.5 46t45.5 18.5t45.5 -18.5t18.5 -46t-18.5 -45.5t-45.5 -18zM0 149h107h2v43h-2h-64v533h554v-533h-232v-43h275v619h-640v-619z" />
    <glyph glyph-name="uniE601" unicode="&#xe601;" 
d="M256 640q0 106 75 181t181 75t181 -75t75 -181t-75 -181t-181 -75t-181 75t-75 181zM981 -128q-5 119 -69 217.5t-170 154t-230 55.5t-230 -55.5t-170 -154t-69 -217.5h938z" />
    <glyph glyph-name="uniE602" unicode="&#xe602;" 
d="M514 383q107 0 181.5 75t74.5 180q0 106 -75 181t-181 75t-180.5 -75t-74.5 -181q-2 -105 73 -180t182 -75zM512 851q88 0 150.5 -62.5t62.5 -150t-62.5 -150t-150.5 -62.5t-150.5 62.5t-62.5 150t62.5 150t150.5 62.5zM512 298q-120 0 -224 -56.5t-169 -154t-75 -215.5
h42q11 106 70 194t153 138.5t203 50.5t203 -50.5t153 -138.5t70 -194h42q-10 118 -75 215.5t-169 154t-224 56.5z" />
    <glyph glyph-name="uniE603" unicode="&#xe603;" 
d="M43 811v-683h298l171 -171l171 171h298v683h-938zM939 171h-271l-156 -150l-154 150h-273v597h854v-597zM192 597h640v-42h-640v42zM192 384h512v-43h-512v43z" />
    <glyph glyph-name="uniE604" unicode="&#xe604;" 
d="M0 832v-213h85v-683h854v683h85v213h-1024zM896 -21h-768v640h768v-640zM981 661h-938v128h938v-128zM363 363h298q8 0 15 6.5t7 14.5v128q0 8 -7 14.5t-15 6.5h-298q-8 0 -15 -6.5t-7 -14.5v-128q0 -8 7 -14.5t15 -6.5zM384 469q0 8 6.5 15t14.5 7h214q8 0 14.5 -7
t6.5 -15v-42q0 -8 -6.5 -15t-14.5 -7h-214q-8 0 -14.5 7t-6.5 15v42z" />
    <glyph glyph-name="uniE605" unicode="&#xe605;" 
d="M619 811v85h-214v-85h-362v-43h938v43h-362zM448 811v42h128v-42h-128zM171 -128h682l64 853h-810zM817 -85h-610l-58 768h726zM491 512h42v-427h-42v427zM683 85h-43l43 427h42zM384 85h-43l-42 427h42z" />
    <glyph glyph-name="uniE606" unicode="&#xe606;" 
d="M939 384h-43q0 -158 -113 -271t-271 -113t-271 113t-113 271t113 271t271 113q94 0 177 -43.5t137 -118.5l-192 17l-5 -43l256 -21l22 256l-43 4l-15 -173q-60 77 -148 121t-189 44q-115 0 -213.5 -57.5t-156 -156t-57.5 -213.5t57.5 -213.5t156 -156t213.5 -57.5
t213.5 57.5t156 156t57.5 213.5zM589 553l-77 -135l-77 135h-36l92 -165h-79v-27h83v-35h-83v-25h83v-79h32v79h85v25h-85v35h85v27h-81l94 165h-36z" />
    <glyph glyph-name="uniE607" unicode="&#xe607;" 
d="M516 710l90 -198q10 -20 32 -23l211 -37l-158 -155q-16 -14 -13 -37l32 -222l-185 107q-10 6 -22 6q-6 0 -19 -4l-187 -100l40 220q4 22 -11 36l-151 160l213 28q22 3 32 23zM518 811l-136 -278l-297 -38l209 -222l-55 -305l267 139l262 -150l-45 308l218 213l-295 51z
" />
    <glyph glyph-name="uniE608" unicode="&#xe608;" 
d="M382 533l136 278l128 -282l293 -51l-218 -213l47 -308l-260 150l-267 -141l56 305l-212 224z" />
    <glyph glyph-name="uniE609" unicode="&#xe609;" 
d="M917 21q0 -17 -12.5 -29.5t-29.5 -12.5h-726q-17 0 -29.5 12.5t-12.5 29.5v726q0 17 12.5 29.5t29.5 12.5h470v43h-512q-18 0 -30.5 -12.5t-12.5 -30.5v-810q0 -18 12.5 -30.5t30.5 -12.5h810q18 0 30.5 12.5t12.5 30.5v512h-43v-470zM960 800l-603 -603l-31 30l604 604z
" />
    <glyph glyph-name="uniE60A" unicode="&#xe60a;" 
d="M256 209q3 -17 21 -17h598q18 0 21 17l85 469q4 10 -4 17q-6 9 -17 9h-706l-21 115q-4 16 -15.5 25t-27.5 9h-147v-85h111zM213 21q0 44 31.5 75.5t75.5 31.5t75.5 -31.5t31.5 -75.5t-31.5 -75t-75.5 -31t-75.5 31t-31.5 75zM725 21q0 44 31.5 75.5t75.5 31.5t75.5 -31.5
t31.5 -75.5t-31.5 -75t-75.5 -31t-75.5 31t-31.5 75z" />
    <glyph glyph-name="uniE60B" unicode="&#xe60b;" 
d="M892 213h-632l-106 598h-111v42h145l25 -149h770zM294 256h561l77 405h-710zM320 -85q-45 0 -76 31t-31 75.5t31 75.5t76 31t76 -31t31 -75.5t-31 -75.5t-76 -31zM320 85q-27 0 -45.5 -18t-18.5 -45.5t18.5 -46t45.5 -18.5t45.5 18.5t18.5 46t-18.5 45.5t-45.5 18z
M832 -85q-45 0 -76 31t-31 75.5t31 75.5t76 31t76 -31t31 -75.5t-31 -75.5t-76 -31zM832 85q-27 0 -45.5 -18t-18.5 -45.5t18.5 -46t45.5 -18.5t45.5 18.5t18.5 46t-18.5 45.5t-45.5 18z" />
    <glyph glyph-name="uniE60C" unicode="&#xe60c;" 
d="M512 811q115 0 213.5 -57.5t156 -156t57.5 -213.5t-57.5 -213.5t-156 -156t-213.5 -57.5t-213.5 57.5t-156 156t-57.5 213.5t57.5 213.5t156 156t213.5 57.5zM452 260l-100 101l-32 -35l132 -132l284 284l-32 34z" />
    <glyph glyph-name="uniE60D" unicode="&#xe60d;" 
d="M512 811q-115 0 -213.5 -57.5t-156 -156t-57.5 -213.5t57.5 -213.5t156 -156t213.5 -57.5t213.5 57.5t156 156t57.5 213.5t-57.5 213.5t-156 156t-213.5 57.5zM512 0q-158 0 -271 113t-113 271t113 271t271 113t271 -113t113 -271t-113 -271t-271 -113z" />
    <glyph glyph-name="uniE60E" unicode="&#xe60e;" 
d="M875 -41q0 -19 -12.5 -31.5t-30.5 -12.5h-640q-18 0 -30.5 12.5t-12.5 31.5v361q36 4 60 17q33 20 60 53q22 -30 56 -48t72 -18q77 0 128 69q49 -67 126 -67q82 0 130 69q22 -31 64 -56q10 -4 32 -8v-372h-2zM798 457q-2 6 -9 11.5t-15 5.5h-25q-8 0 -14 -5.5t-8 -11.5
q-4 -37 -30 -57t-61.5 -20t-61 20t-30.5 57q-3 17 -21 17h-24q-7 0 -13 -5.5t-8 -11.5q-5 -37 -30.5 -57t-61.5 -20q-37 0 -62 19.5t-30 57.5q-3 17 -21 17h-23q-8 0 -12.5 -5.5t-4.5 -11.5q-6 -32 -37.5 -58t-54.5 -26q-42 0 -69.5 22.5t-28.5 58.5l115 391q4 8 8 8h689
q8 0 11 -8l115 -391q-1 -38 -27.5 -55t-63.5 -19q-26 -2 -47.5 14.5t-31.5 33.5t-13 29z" />
    <glyph glyph-name="uniE60F" unicode="&#xe60f;" 
d="M879 804q-5 23 -21 36t-39 13h-606q-23 0 -41 -13.5t-23 -35.5l-106 -356v-4q0 -44 26.5 -78.5t69.5 -47.5v-329q0 -30 19.5 -52t46.5 -22h604q27 0 46.5 22t19.5 52v331q49 8 77.5 41.5t28.5 82.5v4zM821 9q0 -16 -10.5 -27.5t-25.5 -11.5h-555q-15 0 -25.5 11t-10.5 28
v302q29 4 51 15q34 19 52 45q41 -55 110 -55q33 0 62 15.5t47 41.5q42 -55 109 -55q70 0 111 57q15 -21 55 -46q10 -5 28 -9v-311h2zM851 375q-32 -1 -54 24.5t-27 46.5q-4 15 -19 15h-21q-16 0 -20 -17q-4 -33 -26.5 -51t-54 -18t-54 18t-27.5 51q-4 17 -19 17h-21
q-16 0 -19 -17q-5 -33 -27.5 -51t-54.5 -18t-54 18t-27 51q-4 17 -19 17h-21q-15 0 -15 -17q-5 -29 -32.5 -52t-48.5 -23q-36 0 -59.5 20.5t-23.5 52.5l98 347q4 9 8 9h606q9 0 9 -7l102 -347q-1 -36 -24 -52.5t-55 -16.5zM851 375z" />
    <glyph glyph-name="uniE610" unicode="&#xe610;" 
d="M789 405h-256v256q0 10 -5.5 16t-15.5 6t-15.5 -6t-5.5 -16v-256h-256q-10 0 -16 -5.5t-6 -15.5t6 -15.5t16 -5.5h256v-256q0 -10 5.5 -16t15.5 -6t15.5 6t5.5 16v256h256q10 0 16 5.5t6 15.5t-6 15.5t-16 5.5zM981 896h-938q-18 0 -30.5 -12.5t-12.5 -30.5v-938
q0 -18 12.5 -30.5t30.5 -12.5h938q18 0 30.5 12.5t12.5 30.5v938q0 18 -12.5 30.5t-30.5 12.5zM1003 -64q0 -18 -12.5 -30.5t-30.5 -12.5h-896q-18 0 -30.5 12.5t-12.5 30.5v896q0 18 12.5 30.5t30.5 12.5h896q18 0 30.5 -12.5t12.5 -30.5v-896z" />
    <glyph glyph-name="uniE611" unicode="&#xe611;" 
d="M981 896h-938q-18 0 -30.5 -12.5t-12.5 -30.5v-938q0 -18 12.5 -30.5t30.5 -12.5h938q18 0 30.5 12.5t12.5 30.5v938q0 18 -12.5 30.5t-30.5 12.5zM789 363h-256v-256q0 -10 -5.5 -16t-15.5 -6t-15.5 6t-5.5 16v256h-256q-10 0 -16 5.5t-6 15.5t6 15.5t16 5.5h256v256
q0 10 5.5 16t15.5 6t15.5 -6t5.5 -16v-256h256q10 0 16 -5.5t6 -15.5t-6 -15.5t-16 -5.5z" />
    <glyph glyph-name="uniE612" unicode="&#xe612;" 
d="M981 896h-938q-18 0 -30.5 -12.5t-12.5 -30.5v-938q0 -18 12.5 -30.5t30.5 -12.5h938q18 0 30.5 12.5t12.5 30.5v938q0 18 -12.5 30.5t-30.5 12.5zM1003 -66q0 -17 -12 -29t-29 -12h-900q-16 0 -28.5 12.5t-12.5 28.5v900q0 16 12.5 28.5t28.5 12.5h900q16 0 28.5 -12.5
t12.5 -28.5v-900zM811 384q0 -9 -6.5 -15t-15.5 -6h-554q-9 0 -15.5 6t-6.5 15q0 8 6 14.5t16 6.5h554q9 0 15.5 -6t6.5 -15z" />
    <glyph glyph-name="uniE613" unicode="&#xe613;" 
d="M981 896h-938q-18 0 -30.5 -12.5t-12.5 -30.5v-938q0 -18 12.5 -30.5t30.5 -12.5h938q18 0 30.5 12.5t12.5 30.5v938q0 18 -12.5 30.5t-30.5 12.5zM789 363h-256h-42h-256q-10 0 -16 5.5t-6 15.5t6 15.5t16 5.5h256h42h256q10 0 16 -5.5t6 -15.5t-6 -15.5t-16 -5.5z" />
    <glyph glyph-name="uniE614" unicode="&#xe614;" 
d="M512 -43q-9 0 -45 36t-83.5 96t-93.5 127t-77.5 139.5t-31.5 124.5q0 90 44 166.5t120.5 120.5t166.5 44t166.5 -44t120.5 -120.5t44 -166.5q0 -52 -31.5 -124.5t-77.5 -139.5t-93.5 -127t-83.5 -96t-45 -36v0zM512 768q-120 0 -204 -84t-84 -204q0 -45 29 -111t70 -128
t83.5 -117.5t72.5 -89.5t33 -34q2 0 31.5 34t72 89.5t84 117.5t71 128t29.5 111q0 120 -84 204t-204 84v0zM512 363q-48 0 -82.5 34.5t-34.5 82.5t34.5 82.5t82.5 34.5t82.5 -34.5t34.5 -82.5t-34.5 -82.5t-82.5 -34.5v0zM512 555q-30 0 -52.5 -22.5t-22.5 -52.5t22.5 -52.5
t52.5 -22.5t52.5 22.5t22.5 52.5t-22.5 52.5t-52.5 22.5v0zM512 555z" />
    <glyph glyph-name="uniE615" unicode="&#xe615;" 
d="M875 834h-197v39h-42v-39h-248v39h-42v-39h-197q-9 0 -15 -6t-6 -15v-150v-42v-704q0 -10 6 -16t15 -6h726q9 0 15 6t6 16v704v42v150q0 8 -6 14.5t-15 6.5zM853 -41q0 -9 -5.5 -15t-15.5 -6h-640q-10 0 -15.5 6t-5.5 15v662h682v-662zM171 663v107q0 10 5.5 15.5
t15.5 5.5h154v-46h42v46h246v-46h42v46h156q10 0 15.5 -5.5t5.5 -15.5v-107h-682zM256 435h512v-42h-512v42zM256 307h512v-42h-512v42zM256 179h512v-42h-512v42z" />
    <glyph glyph-name="uniE616" unicode="&#xe616;" 
d="M512 896q-140 0 -257.5 -68.5t-186 -186t-68.5 -257.5t68.5 -257.5t186 -186t257.5 -68.5t257.5 68.5t186 186t68.5 257.5t-68.5 257.5t-186 186t-257.5 68.5zM512 -85q-96 0 -183 37t-149.5 100t-99.5 150t-37 182t37 182t99.5 150t149.5 100t183 37t183 -37
t149.5 -99.5t99.5 -149.5t37 -183t-37 -183t-99.5 -149.5t-149.5 -99.5t-183 -37zM708 610l-196 -196l-196 196l-30 -30l196 -196l-196 -196l30 -30l196 196l196 -196l30 30l-196 196l196 196z" />
    <glyph glyph-name="uniE617" unicode="&#xe617;" 
d="M512 896q-140 0 -257.5 -68.5t-186 -186t-68.5 -257.5t68.5 -257.5t186 -186t257.5 -68.5t257.5 68.5t186 186t68.5 257.5t-68.5 257.5t-186 186t-257.5 68.5zM512 -85q-96 0 -183 37t-149.5 100t-99.5 150t-37 182t37 182t99.5 150t149.5 100t183 37t183 -37
t149.5 -99.5t99.5 -149.5t37 -183t-37 -183t-99.5 -149.5t-149.5 -99.5t-183 -37zM491 525h42v-397h-42v397zM491 640h42v-49h-42v49z" />
    <glyph glyph-name="uniE618" unicode="&#xe618;" 
d="M192 779q27 0 45.5 -18.5t18.5 -46t-18.5 -45.5t-45.5 -18t-45.5 18t-18.5 45.5t18.5 46t45.5 18.5zM192 821q-45 0 -76 -31t-31 -75.5t31 -75.5t76 -31t76 31t31 76q0 44 -31.5 75t-75.5 31zM512 779q27 0 45.5 -18.5t18.5 -46t-18.5 -45.5t-45.5 -18t-45.5 18
t-18.5 45.5t18.5 46t45.5 18.5zM512 821q-45 0 -76 -31t-31 -75.5t31 -75.5t76 -31t76 31t31 76q0 44 -31.5 75t-75.5 31zM832 779q27 0 45.5 -18.5t18.5 -46t-18.5 -45.5t-45.5 -18t-45.5 18t-18.5 46q0 27 19 45.5t45 18.5zM832 821q-45 0 -76 -31t-31 -75.5t31 -75.5
t76 -31t76 31t31 75.5t-31 75.5t-76 31zM192 448q27 0 45.5 -18.5t18.5 -45.5t-18.5 -45.5t-45.5 -18.5t-45.5 18.5t-18.5 45.5t18.5 45.5t45.5 18.5zM192 491q-45 0 -76 -31t-31 -76t31 -76t76 -31t76 31t31 76q0 44 -31.5 75.5t-75.5 31.5zM512 448q27 0 45.5 -18.5
t18.5 -45.5t-18.5 -45.5t-45.5 -18.5t-45.5 18.5t-18.5 45.5t18.5 45.5t45.5 18.5zM512 491q-45 0 -76 -31t-31 -76t31 -76t76 -31t76 31t31 76q0 44 -31.5 75.5t-75.5 31.5zM832 448q27 0 45.5 -18.5t18.5 -45.5t-18.5 -45.5t-45.5 -18.5t-45.5 18.5t-18.5 45.5t19 45.5
t45 18.5zM832 491q-45 0 -76 -31t-31 -76t31 -76t76 -31t76 31t31 76t-31 76t-76 31zM192 117q27 0 45.5 -18t18.5 -45.5t-18.5 -46t-45.5 -18.5t-45.5 18.5t-18.5 46t18.5 45.5t45.5 18zM192 160q-45 0 -76 -31t-31 -75.5t31 -75.5t76 -31t76 31t31 75q0 45 -31.5 76
t-75.5 31zM512 117q27 0 45.5 -18t18.5 -45.5t-18.5 -46t-45.5 -18.5t-45.5 18.5t-18.5 46t18.5 45.5t45.5 18zM512 160q-45 0 -76 -31t-31 -75.5t31 -75.5t76 -31t76 31t31 75q0 45 -31.5 76t-75.5 31zM832 117q27 0 45.5 -18t18.5 -45.5t-18.5 -46t-45.5 -18.5t-45.5 18.5
t-18.5 45.5t19 45.5t45 18.5zM832 160q-45 0 -76 -31t-31 -75.5t31 -75.5t76 -31t76 31t31 75.5t-31 75.5t-76 31z" />
    <glyph glyph-name="uniE619" unicode="&#xe619;" 
d="M747 896h-470q-44 0 -75 -31t-31 -76v-810q0 -45 31 -76t75 -31h470q44 0 75 31.5t31 75.5v810q0 45 -31 76t-75 31zM811 0q0 -35 -25 -60t-61 -25h-426q-36 0 -61 25t-25 60v128h598v-128zM811 171h-598v597q0 35 25 60t61 25h426q36 0 61 -25t25 -60v-597zM512 21z
M469 21.5q0 17.5 12.5 30t30.5 12.5t30.5 -12.5t12.5 -30t-12.5 -30t-30.5 -12.5t-30.5 12.5t-12.5 30z" />
    <glyph glyph-name="uniE61A" unicode="&#xe61a;" 
d="M981 768h-938q-18 0 -30.5 -12.5t-12.5 -30.5v-682q0 -18 12.5 -30.5t30.5 -12.5h938q18 0 30.5 12.5t12.5 30.5v682q0 18 -12.5 30.5t-30.5 12.5zM981 85q0 -17 -12.5 -29.5t-29.5 -12.5h-854q-17 0 -29.5 12.5t-12.5 29.5v598q0 17 12.5 29.5t29.5 12.5h854
q17 0 29.5 -12.5t12.5 -29.5v-598zM128 597h768v-42h-768v42zM789 384h-170q-10 0 -16 -6t-6 -15v-128q0 -10 6 -16t16 -6h170q10 0 16 6t6 16v128q0 9 -6 15t-16 6zM768 277q0 -9 -6 -15t-15 -6h-86q-9 0 -15 6t-6 15v43q0 10 6 15.5t15 5.5h86q9 0 15 -5.5t6 -15.5v-43z
" />
    <glyph glyph-name="uniE61B" unicode="&#xe61b;" 
d="M382 685l-43 -43l260 -258l-260 -258l43 -43l303 301z" />
    <glyph glyph-name="uniE61C" unicode="&#xe61c;" 
d="M218 819l76 77l512 -512l-512 -512l-76 77l435 435z" />
    <glyph glyph-name="uniE61D" unicode="&#xe61d;" 
d="M806 -51l-76 -77l-512 512l512 512l76 -77l-435 -435z" />
    <glyph glyph-name="uniE61E" unicode="&#xe61e;" 
d="M512 -64l-66 64q-63 56 -99.5 88.5t-86 79t-76.5 77.5t-58 71.5t-46.5 73t-26 69.5t-10.5 74q0 109 74.5 182.5t183.5 73.5q60 0 116.5 -26t94.5 -72q38 46 94.5 72t116.5 26q109 0 183.5 -73.5t74.5 -182.5q0 -32 -6.5 -63.5t-23 -64.5t-33 -61t-48.5 -64.5t-56.5 -63
t-70.5 -69t-77 -70t-88 -77.5z" />
    <glyph glyph-name="uniE61F" unicode="&#xe61f;" 
d="M580 300q-9 0 -16 -7t-7 -17q0 -8 7 -15t16 -7q13 0 21.5 6.5t8.5 15.5q0 10 -8.5 17t-21.5 7zM503 413q14 0 22 8t8 21t-8 21t-22 8t-24 -8t-10 -21t10 -21t24 -8zM512 811q-104 0 -198.5 -40.5t-163 -109t-109 -163t-40.5 -198.5t40.5 -199t109 -163.5t163 -109
t198.5 -40.5t199 40.5t163.5 109t109 163.5t40.5 199t-40.5 198.5t-109 163t-163.5 109t-199 40.5zM416 170q-36 0 -83 13l-84 -42l24 72q-94 66 -94 158q0 84 69 142t168 58q87 0 154.5 -46.5t82.5 -118.5q-12 2 -22 2q-85 0 -143 -55t-58 -132q0 -23 6 -50q-6 -1 -20 -1z
M763 88l17 -60l-63 36q-5 -1 -22 -5t-28 -5.5t-22 -1.5q-84 0 -142 50t-58 121.5t58 121.5t142 50q80 0 140.5 -50.5t60.5 -121.5q0 -74 -83 -135zM338 471q-14 0 -25 -8t-11 -21t11 -21t25 -8q13 0 21.5 8t8.5 21t-8.5 21t-21.5 8zM711 300q-10 0 -17 -7t-7 -17
q0 -8 7.5 -15t16.5 -7q12 0 20.5 6.5t8.5 15.5q0 10 -8.5 17t-20.5 7zM711 300z" />
    <glyph glyph-name="uniE620" unicode="&#xe620;" horiz-adv-x="1027" 
d="M1026 -42v-6q0 -68 -48 -116t-116 -48h-698q-68 0 -116 48t-48 116v696q0 68 48 116t116 48h698q68 0 116 -48t48 -116v-530v-160zM277 24q-46 0 -82 13.5t-55 35t-26 47.5t2.5 52t33.5 47q18 15 47.5 25t52.5 12q65 7 130.5 -13t157.5 -65q-59 -73 -126 -113.5
t-135 -40.5zM845 170q-28 10 -158 57q54 93 87 216h-204v71h249v41h-249v122h-100q-8 0 -13 -5t-5 -9l-1 -5v-105h-250v-41h250v-69h-207v-41h402q-19 -69 -57 -142q-249 83 -357 55q-76 -19 -113 -63q-36 -43 -41 -95.5t16.5 -96.5t74.5 -74t127 -30q89 0 174 47t154 132
q60 -29 160.5 -73.5t171.5 -73.5l70 -30v158q-33 5 -181 54z" />
    <glyph glyph-name="uniE621" unicode="&#xe621;" 
d="M954 437q-2 -20 -2 -21q-4 -54 -29 -105q-38 -78 -99 -148q-56 -66 -136 -139q-65 -59 -142 -120q-19 -16 -41 -14q-15 2 -27 12q-145 115 -247 222q-71 76 -114 152q-33 58 -42 104q-1 2 -6 45l-1 5v25l1 5q0 1 0.5 9t1.5 12q12 81 60 140q67 82 168 91q52 5 103 -15
q55 -22 96 -69q1 -1 13 -16l3 4q34 44 80 69q71 38 148 25q88 -15 148 -88q55 -67 62 -156q0 -1 2 -21v-8zM899 441q-2 24 -2 25q-8 72 -54 123q-65 72 -158 63q-62 -7 -111 -55q-29 -28 -47 -72q-5 -11 -16 -11t-16 11q-16 38 -38 62q-56 63 -134 65q-76 3 -130 -49
q-88 -84 -65 -208q7 -35 35 -85q40 -72 112 -148q95 -99 232 -209q4 -3 8 0q73 59 134 114q80 73 134 136q60 69 94 143q21 44 22 95z" />
    <glyph glyph-name="uniE622" unicode="&#xe622;" horiz-adv-x="1000" 
d="M941 -54l-212 216q-5 6 -12 8q73 98 73 221q0 98 -47.5 182t-129.5 132.5t-179 48.5t-179 -48.5t-129.5 -132.5t-47.5 -182.5t47.5 -182.5t129.5 -132.5t179 -48.5q134 0 235 91q3 -6 7 -10l212 -217q11 -11 26.5 -11t26.5 11.5t11 27t-11 27.5zM434 84q-124 0 -212 90
t-88 217t88 216.5t212 89.5t212 -89.5t88 -216.5t-88 -217t-212 -90z" />
    <glyph glyph-name="uniE623" unicode="&#xe623;" 
d="M512 895q-104 0 -198.5 -40.5t-163 -109t-109 -163t-40.5 -198.5t40.5 -198.5t109 -163t163 -109t198.5 -40.5t198.5 40.5t163 109t109 163t40.5 198.5t-40.5 198.5t-109 163t-163 109t-198.5 40.5zM800 340h-576v88h576v-88z" />
    <glyph glyph-name="uniE624" unicode="&#xe624;" 
d="M308 467zM270 467.5q0 15.5 11.5 26.5t27 11t26.5 -11t11 -26.5t-11 -26.5t-26.5 -11t-27 11t-11.5 26.5zM594 273zM564 272.5q0 12.5 8.5 21t21 8.5t21 -8.5t8.5 -21t-8.5 -21t-21 -8.5t-21 8.5t-8.5 21zM500 467zM463 467.5q0 15.5 11 26.5t26.5 11t26.5 -11t11 -26.5
t-11 -26.5t-26.5 -11t-26.5 11t-11 26.5zM814 750h-605q-60 0 -102.5 -42.5t-42.5 -102.5v-604q0 -61 42.5 -103.5t102.5 -42.5h605q60 0 102.5 42.5t42.5 103.5v604q0 60 -42.5 102.5t-102.5 42.5zM400 151q-26 0 -95 13l-95 -47l27 81q-109 76 -109 183q0 97 80 164
t192 67q100 0 178 -54t96 -136q-15 1 -26 1q-97 0 -164 -62.5t-67 -151.5q0 -29 8 -57q-14 -1 -25 -1zM800 56l21 -68l-75 41q-54 -14 -81 -14q-97 0 -164 57.5t-67 139t67 139.5t164 58q92 0 161 -58.5t69 -138.5q0 -85 -95 -156zM741 273zM712 272.5q0 12.5 8.5 21t21 8.5
t21 -8.5t8.5 -21t-8.5 -21t-21 -8.5t-21 8.5t-8.5 21z" />
    <glyph glyph-name="uniE625" unicode="&#xe625;" 
d="M818 629l-261 -261l246 -246q9 -10 9 -23t-9 -22t-22.5 -9t-22.5 9l-246 246l-246 -246q-9 -9 -22.5 -9t-22.5 9t-9 22t9 23l246 246l-261 261q-9 9 -9 22t9 22.5t22.5 9.5t22.5 -9l261 -261l261 261q9 9 22.5 9t22.5 -9.5t9 -22.5t-9 -22z" />
    <glyph glyph-name="uniE626" unicode="&#xe626;" horiz-adv-x="1639" 
d="M573 202h504q18 0 27 11t0 23q-42 53 -252 315q-9 11 -27 11t-27 -11q-13 -15 -127.5 -158t-125.5 -157q-8 -11 0.5 -22.5t27.5 -11.5z" />
    <glyph glyph-name="uniE627" unicode="&#xe627;" 
d="M26 280q-26 79 -22 171q3 73 26 151q25 89 60 150l35 -20l-18 9l7 -5q-2 -4 -9 -19t-21 -51.5t-25 -74.5q-12 -43 -18.5 -88.5t-4 -105.5t19.5 -111q28 -83 93 -150t164 -110l-8 -26q-218 96 -279 280zM387 -73q-50 37 -102 92q-24 25 -56 91.5t-45.5 101t-22.5 59.5
l-1 3v4q0 6 2.5 13.5t15 24t33 34t60.5 43.5t94 54q43 22 81 61t63 79t45.5 85.5t30.5 75.5t16 55q1 5 4 15t3 12l33 -7l-6 -27q-24 -140 111 -247q70 -56 145 -82l16 -5l-2 -16q-14 -143 -78 -283q-42 -93 -82 -143q-26 -33 -105 -86q-91 -62 -136 -62t-117 55zM187 278
q24 -66 58 -140.5t60 -101.5q61 -64 115 -102t83 -38q33 0 118 57q77 52 100 82q16 19 36 54t45 87.5t46 123t29 140.5q-81 33 -147 86q-70 55 -105 121q-14 27 -22 55q-17 -43 -37 -81q-76 -147 -189 -205q-43 -23 -77.5 -44t-53.5 -35.5t-33 -28t-18.5 -19.5t-7.5 -11z
M826 -37q-65 25 -85 113l27 5q7 -32 26 -57.5t42 -34.5q2 -1 18 -3.5t17 -2.5q-18 57 -17 81q2 88 79 216q66 110 57 288q-4 79 -22 147l28 9q19 -66 23 -156q4 -78 -8 -147q-16 -87 -56 -154q-68 -115 -71 -203q-1 -30 4.5 -49.5t11.5 -25.5l24 -27l-31 -5q-16 -3 -22 -3
q-24 0 -45 9zM672 324q-27 1 -52.5 13.5t-33.5 20.5t-13 14l12 8l15 13q3 -3 10 -9.5t26.5 -17t38.5 -10.5q42 -1 86 48l25 -20q-54 -60 -111 -60h-3zM506 29q-27 0 -45 6q-38 12 -60 36l26 22l-15 -13l15 13q19 -19 48 -29q57 -18 116 31l21 -23q-51 -43 -105 -43h-1z" />
    <glyph glyph-name="uniE628" unicode="&#xe628;" horiz-adv-x="1434" 
d="M500 539h441q16 0 24 -11t0 -24q-55 -80 -221 -315q-8 -11 -23.5 -11t-23.5 11q-12 17 -112 159.5t-109 156.5q-8 11 -0.5 22.5t24.5 11.5z" />
    <glyph glyph-name="uniE629" unicode="&#xe629;" horiz-adv-x="1232" 
d="M26 248q-16 15 -22.5 32.5t1 42.5t34.5 51q24 22 51 26t47.5 -4t36.5 -22l269 -269l628 762q-1 0 3 3.5t11 8t16.5 9t22 6.5t25.5 1.5t28 -8t28 -20.5q17 -16 23 -36t3 -36.5t-9 -31t-12 -22.5l-5 -8l-689 -840q-21 -19 -50 -19.5t-49 19.5z" />
    <glyph glyph-name="uniE62A" unicode="&#xe62a;" 
d="M208 448v96h-128v-96h-80v-576h288v576h-80zM256 -96h-224v512h80v32v64h64v-64v-32h80v-512zM672 98v-224h224v224h-224zM864 -94h-160v160h160v-160zM986 722l-117 -624h-170l-117 624h404zM1024 754h-480l128 -688h224zM552 378v132h-160v-132q-28 -10 -46 -34.5
t-18 -55.5v-48v-32v-240q0 -40 28 -68t68 -28h96q40 0 68 28t28 68v240v32v48q0 31 -18 55.5t-46 34.5zM584 -16q0 -34 -23 -57t-57 -23h-64q-34 0 -57 23t-23 57v224h224v-224zM360 240v32q0 29 18 50.5t46 27.5v34v94h96v-94v-34q28 -6 46 -27.5t18 -50.5v-32h-224z" />
    <glyph glyph-name="uniE62B" unicode="&#xe62b;" 
d="M947 614l-392 277q-14 8 -22 -3l-55 -78q-8 -14 4 -23l393 -275q14 -8 23 3l54 79q4 4 2.5 10.5t-7.5 9.5zM885 552q-7 -6 -11 -2l-356 248q-6 7 -1 12l27 38q6 6 11 2l354 -248q6 -7 1 -12zM462 722l359 -252l-402 -416l-1 -1l-2 -3l-210 147l2 1l2 2zM450 768
l-271 -552q-7 -11 -5 -24.5t13 -20.5l210 -147q9 -6 17 -6q19 0 26 14l427 443l-25 18l-367 257zM146 110q28 -26 100 -78q65 -46 109 -67l-37 -51q-42 19 -108 67q-70 49 -101 80zM142 163l-73 -105q1 -3 5.5 -9.5t35 -33.5t80.5 -63q112 -78 141 -78l74 105q-29 0 -141 79
q-50 35 -80.5 62t-36 34.5t-5.5 8.5z" />
    <glyph glyph-name="uniE62C" unicode="&#xe62c;" 
d="M282 735q5 -13 18 -13q4 0 8 2q7 3 10.5 10.5t0.5 15.5l-27 65q-3 8 -10.5 11t-15.5 0t-11 -10.5t0 -15.5zM79 606l65 -28q3 -1 7 -1q14 0 19 12q3 8 0 15.5t-11 10.5l-65 28q-8 3 -15.5 0t-10.5 -11t0 -15.5t11 -10.5zM157 372q8 3 11.5 10.5t0 15.5t-11 11t-15.5 0
l-65 -27q-8 -3 -11 -10.5t0 -15.5q5 -12 19 -12q3 0 7 1zM651 574q4 0 8 2l63 25q8 3 11 11t0 15.5t-10.5 11t-15.5 -0.5l-63 -25q-8 -3 -11 -11t0 -15q5 -13 18 -13zM497 722q3 -2 8 -2q13 0 18 13l27 64q4 8 0.5 15.5t-11 11t-15 0.5t-10.5 -11l-28 -65q-3 -8 0 -15.5
t11 -10.5zM917 202q-37 38 -88 45q-6 92 -72 157t-158 69q1 9 1 17q0 83 -59 141.5t-141.5 58.5t-141 -58.5t-58.5 -141.5q0 -87 63 -146q-26 -13 -41.5 -38.5t-15.5 -56.5v-5q-50 -14 -82.5 -55.5t-32.5 -94.5q0 -64 46 -109.5t110 -45.5h559q63 0 109 45q46 46 46 110
q0 63 -44 108zM240 490q0 66 47 113t113 47t113 -47t47 -113q0 -9 -2 -19q-59 -8 -108 -43t-76 -89q-27 18 -60 18h-3q-33 22 -52 57.5t-19 75.5zM887 13q-34 -34 -81 -34h-559q-48 0 -82 34t-34 81q0 43 28.5 76t71.5 39q9 1 14 8t3 16q-2 8 -2 16q0 26 16.5 45t41.5 22h3
t6 1h1q32 0 52 -25q8 -9 19.5 -7t15.5 13q21 61 73 98t116 37q82 0 140.5 -58.5t58.5 -141.5v-2v-2q0 -8 5.5 -14t14.5 -6q46 -1 79 -34.5t33 -80.5q0 -48 -34 -81z" />
    <glyph glyph-name="uniE62D" unicode="&#xe62d;" 
d="M288 96q0 13 -9.5 22.5t-22.5 9.5h-192q-13 0 -22.5 -9.5t-9.5 -22.5l-32 -192q0 -13 9.5 -22.5t22.5 -9.5h256q13 0 22.5 9.5t9.5 22.5zM262 -96h-204q-11 0 -18.5 7t-7.5 17l26 144q0 10 7.5 17t17.5 7h154q10 0 17.5 -7t7.5 -17l26 -144q0 -10 -7.5 -17t-18.5 -7z
M240 272h-160q-6 0 -11 -5t-5 -11v-96q0 -6 5 -11t11 -5h160q6 0 11 5t5 11v96q0 6 -5 11t-11 5zM224 184q0 -8 -8 -8h-112q-8 0 -8 8v48q0 8 8 8h112q8 0 8 -8v-48zM576 448h-160q-16 0 -16 -16v-544q0 -16 16 -16h160q16 0 16 16v544q0 16 -16 16zM560 -88q0 -8 -8 -8
h-112q-8 0 -8 8v496q0 8 8 8h112q8 0 8 -8v-496zM480 768h32v-320h-32v320zM400 544h192v-32h-192v32zM400 624h192v-32h-192v32zM400 704h192v-32h-192v32zM992 160h-288q-13 0 -22.5 -9.5t-9.5 -22.5v-256h352v256q0 13 -9.5 22.5t-22.5 9.5zM992 -64v-16v-16h-16h-256
h-16v16v16v176q0 16 16 16h256q16 0 16 -16v-176zM768 579l160 -160v-179h-160v339zM768 624q-13 0 -22.5 -9.5t-9.5 -22.5v-352q0 -13 9.5 -22.5t22.5 -9.5h160q13 0 22.5 9.5t9.5 22.5v192z" />
    <glyph glyph-name="uniE62E" unicode="&#xe62e;" 
d="M184 93q-11 0 -17 10q-45 76 -70 170t-25 189q0 75 21 145q7 17 24 13q16 -6 13 -23q-19 -68 -19 -134q0 -89 23.5 -178t65.5 -161q9 -15 -6 -27q-2 -4 -10 -4zM502 -106q-134 0 -234 89q-15 14 -2 27q14 14 27 2q94 -80 209 -80t210 80q6 5 14 4.5t13 -6.5t4.5 -14.5
t-6.5 -12.5q-104 -89 -235 -89zM818 93q-7 0 -9 2q-17 10 -6 27q42 72 65.5 161t23.5 179q0 75 -19 133q-3 8 1 15t12 9q8 3 15 -1t8 -13q22 -70 22 -145q0 -95 -25 -189t-70 -170q-8 -8 -18 -8zM177 704q-4 0 -12 4q-6 4 -7 12.5t3 14.5q58 71 145.5 109t193.5 38
q107 0 195 -38t145 -109q4 -6 3.5 -14.5t-7.5 -12.5q-19 -11 -27 4q-53 64 -133.5 98.5t-177.5 34.5t-177.5 -34t-132.5 -99q0 -8 -11 -8zM326 392q-48 0 -81 23t-33 56.5t33 56.5t81 23t81 -23t33 -56.5t-33 -56.5t-81 -23zM326 514q-32 0 -54 -12.5t-22 -28t22 -28.5
t54 -13t54 13t22 28.5t-22 28t-54 12.5zM667 392q-48 0 -81 23t-33 56.5t33 56.5t81 23t81 -23t33 -57q0 -33 -32.5 -56t-81.5 -23zM667 514q-32 0 -54 -12.5t-22 -28t22 -28.5t54 -13t54 13t22 28.5t-22 28t-54 12.5zM502 56q-41 0 -70 19.5t-29 46.5q0 28 28.5 47t70.5 19
t70.5 -19t28.5 -47q0 -27 -29 -46.5t-70 -19.5zM502.5 149q-24.5 0 -42.5 -8.5t-18 -18t17 -18.5t43 -9t43 9t17 18.5t-17.5 18t-42 8.5zM495 211q-79 0 -101 37q-15 23 0 55q3 7 10.5 9.5t14.5 -2.5q7 -3 9.5 -10.5t-1.5 -14.5q-2 -4 -3 -7.5t0 -5.5v-2l1 -2q13 -18 68 -18
q66 0 77 20q3 5 -4 15q-9 16 6 27q16 10 27 -6q17 -27 4 -54q-18 -41 -108 -41z" />
    <glyph glyph-name="uniE62F" unicode="&#xe62f;" 
d="M928 288q-5 123 -78 223q-5 7 -13.5 8.5t-15 -3.5t-8 -13.5t3.5 -15.5q69 -94 70 -211v-12l11 -6q19 -11 31 -30.5t12 -42.5q0 -35 -24.5 -59.5t-59.5 -25.5h-12l-5 -10q-49 -85 -133 -135q-87 -52 -188 -52t-187.5 51.5t-135.5 139.5l-6 12l-13 -1q-4 -1 -7 -1
q-35 0 -60 25t-25 60q0 26 14.5 47.5t38.5 30.5l13 5v13q6 148 113 251q106 103 255 103q21 0 41 -2q8 -1 15 4.5t7.5 13.5t-4.5 15t-14 8q-22 2 -45 2q-80 0 -153 -29.5t-131 -84.5q-113 -110 -124 -266q-27 -15 -45 -40q-22 -32 -22 -71q0 -51 36 -87.5t87 -37.5
q55 -94 149 -148t203 -54q113 0 209 57q88 53 142 141q44 5 75 37q37 36 37 88q0 31 -14.5 58t-39.5 45zM277.5 164q-7.5 -4 -10 -12t0.5 -16q35 -68 99 -109q67 -42 146 -42q75 0 139 38q62 37 98 100q4 7 7 13q4 8 1.5 16t-10 12t-15.5 1t-12 -10l-6 -12q-31 -53 -84 -84
q-54 -33 -118 -33q-67 0 -124 36q-55 35 -84 93q-4 7 -12 10t-15.5 -1zM651 528q-37 0 -63 26q-6 5 -14.5 5t-14.5 -6t-5.5 -14.5t6.5 -14.5q37 -37 91 -37t92 38q37 39 37 92.5t-38 90.5q-37 37 -89 38q-9 0 -15 -6t-6 -14.5t6 -14.5t14 -6q36 -1 61 -26q26 -25 26 -62
t-25.5 -63t-62.5 -26zM369 279zM328 279q0 17 12 29t29 12t29 -12t12 -29t-12 -29t-29 -12t-29 12t-12 29zM655 279zM614 279q0 17 12 29t29 12t29 -12t12 -29t-12 -29t-29 -12t-29 12t-12 29z" />
    <glyph glyph-name="uniE630" unicode="&#xe630;" 
d="M848 672h-544q-26 0 -45 -19t-19 -45v-672q0 -26 19 -45t45 -19h544q26 0 45 19t19 45v672q0 26 -19 45t-45 19zM880 -64q0 -13 -9.5 -22.5t-22.5 -9.5h-544q-13 0 -22.5 9.5t-9.5 22.5v672q0 13 9.5 22.5t22.5 9.5h544q13 0 22.5 -9.5t9.5 -22.5v-672zM368 488h32v-288
h-32v288zM368 152h32v-96h-32v96zM688 896h-224q-13 0 -22.5 -9.5t-9.5 -22.5v-32h-64h-192q-26 0 -45 -19t-19 -45v-128v-64h32v48v128q0 20 14 34t34 14h192h48v-64v-32h32v16v16v16v96q0 6 5 11t11 5h192q6 0 11 -5t5 -11v-96v-16v-16v-16h32v32v128q0 13 -9.5 22.5
t-22.5 9.5z" />
  </font>
</defs>
</svg>
